HIERARCHY
ROOT Model_Hips
{
	OFFSET 0.000000 96.915077 0.000000
	CHANNELS 6 Xposition Yposition Zposition Xrotation Yrotation Zrotation
	JOINT Model_Spine
	{
		OFFSET 0.000000 11.137703 -1.289900
		CHANNELS 3 Xrotation Yrotation Zrotation
		JOINT Model_Spine1
		{
			OFFSET 0.000000 12.993942 -1.504922
			CHANNELS 3 Xrotation Yrotation Zrotation
			JOINT Model_Spine2
			{
				OFFSET 0.000000 14.850220 -1.719911
				CHANNELS 3 Xrotation Yrotation Zrotation
				JOINT Model_Neck
				{
					OFFSET 0.000000 16.706543 -1.934903
					CHANNELS 3 Xrotation Yrotation Zrotation
					JOINT Model_Head
					{
						OFFSET 0.000000 10.471298 2.002100
						CHANNELS 3 Xrotation Yrotation Zrotation
						JOINT Model_HeadTop_End
						{
							OFFSET 0.000000 20.842606 3.985100
							CHANNELS 3 Xrotation Yrotation Zrotation
							End Site
							{
								OFFSET 0.000000 21.220154 0.000000
							}
						}
					}
				}
				JOINT Model_LeftShoulder
				{
					OFFSET 7.008500 14.768600 -1.919946
					CHANNELS 3 Xrotation Yrotation Zrotation
					JOINT Model_LeftArm
					{
						OFFSET 14.126271 -3.718048 0.029937
						CHANNELS 3 Xrotation Yrotation Zrotation
						JOINT Model_LeftForeArm
						{
							OFFSET 28.282801 0.000000 0.000000
							CHANNELS 3 Xrotation Yrotation Zrotation
							JOINT Model_LeftHand
							{
								OFFSET 26.204689 0.000000 0.000000
								CHANNELS 3 Xrotation Yrotation Zrotation
								End Site
								{
									OFFSET 26.204704 0.000000 0.000000
								}
							}
						}
					}
				}
				JOINT Model_RightShoulder
				{
					OFFSET -7.008500 14.768555 -1.949840
					CHANNELS 3 Xrotation Yrotation Zrotation
					JOINT Model_RightArm
					{
						OFFSET -14.126281 -3.718018 -0.029932
						CHANNELS 3 Xrotation Yrotation Zrotation
						JOINT Model_RightForeArm
						{
							OFFSET -28.283798 0.000000 -0.000001
							CHANNELS 3 Xrotation Yrotation Zrotation
							JOINT Model_RightHand
							{
								OFFSET -26.204193 0.000000 -0.000001
								CHANNELS 3 Xrotation Yrotation Zrotation
								End Site
								{
									OFFSET -26.204208 0.000000 -0.000001
								}
							}
						}
					}
				}
			}
		}
	}
	JOINT Model_LeftUpLeg
	{
		OFFSET 8.327700 -6.193199 -0.402800
		CHANNELS 3 Xrotation Yrotation Zrotation
		JOINT Model_LeftLeg
		{
			OFFSET 0.735802 -42.108742 -0.610721
			CHANNELS 3 Xrotation Yrotation Zrotation
			JOINT Model_LeftFoot
			{
				OFFSET -0.735806 -36.833748 -0.172876
				CHANNELS 3 Xrotation Yrotation Zrotation
				JOINT Model_LeftToeBase
				{
					OFFSET -0.565857 -11.977769 16.297714
					CHANNELS 3 Xrotation Yrotation Zrotation
					JOINT Model_LeftToe_End
					{
						OFFSET -0.111712 -0.312793 7.857784
						CHANNELS 3 Xrotation Yrotation Zrotation
						End Site
						{
							OFFSET -0.111712 -0.312793 7.857784
						}
					}
				}
			}
		}
	}
	JOINT Model_RightUpLeg
	{
		OFFSET -8.327700 -6.193199 -0.516500
		CHANNELS 3 Xrotation Yrotation Zrotation
		JOINT Model_RightLeg
		{
			OFFSET -0.735785 -42.108738 -0.434061
			CHANNELS 3 Xrotation Yrotation Zrotation
			JOINT Model_RightFoot
			{
				OFFSET 0.735776 -36.833748 -0.021630
				CHANNELS 3 Xrotation Yrotation Zrotation
				JOINT Model_RightToeBase
				{
					OFFSET 0.565817 -11.977745 15.903093
					CHANNELS 3 Xrotation Yrotation Zrotation
					JOINT Model_RightToe_End
					{
						OFFSET 0.111702 -0.312791 7.811342
						CHANNELS 3 Xrotation Yrotation Zrotation
						End Site
						{
							OFFSET 0.111702 -0.312791 7.811342
						}
					}
				}
			}
		}
	}
}
MOTION
Frames: 5
Frame Time: 0.016667
5.389446 95.685791 -69.308083 -2.709447 5.061270 -0.118978 8.659667 -0.383451 0.996796 0.991847 -0.144505 0.449813 0.991467 -0.152928 0.452618 -1.459453 -0.689609 0.373919 -1.457947 -0.687127 0.382049 0.000001 -0.000000 -0.000000 0.346448 -6.638948 -18.016050 -2.262716 -13.076598 -61.110208 0.000003 -9.108526 0.000000 0.000000 0.000000 0.000000 1.485896 2.450030 15.679732 -4.031477 8.213728 61.853688 0.000008 12.244508 0.000029 0.000000 0.000000 -0.000001 -7.449650 5.117185 -3.643427 24.109997 -4.472388 2.001425 -13.733682 -0.455881 3.963692 -1.004287 0.000004 -0.000001 0.000000 0.000000 0.000000 -25.979502 -11.383147 -10.853912 61.287820 -1.660490 0.764816 -4.563486 -0.797920 7.592174 -5.451271 0.043752 -1.650859 0.000001 0.000001 -0.000001 
5.406035 95.639786 -70.697983 -2.921875 4.890138 0.003714 8.386010 0.072356 0.922004 0.955089 -0.018253 0.424498 0.955271 -0.026324 0.425808 -1.432270 -0.736558 0.336843 -1.431015 -0.734423 0.344579 -0.000000 -0.000000 -0.000000 0.366556 -6.370540 -18.023235 -0.283418 -11.378474 -60.992326 0.000002 -7.904688 -0.000010 -0.000000 -0.000000 0.000000 1.476012 2.559106 15.655755 -4.495225 9.329174 62.196235 -0.000010 13.459838 0.000017 -0.000001 -0.000000 -0.000000 -8.366711 4.904572 -3.948246 24.366638 -3.917255 2.114156 -12.849215 -0.425347 3.887937 -0.664802 0.000004 -0.000000 0.000000 -0.000000 0.000000 -23.505731 -11.549611 -11.245016 63.007628 0.356407 0.780062 -4.421806 -0.792187 7.547642 -8.188701 0.130260 -1.743707 0.000001 -0.000000 -0.000000 
5.410659 95.522003 -72.093407 -3.159774 4.719964 0.181786 8.135934 0.570019 0.788066 0.928780 0.121803 0.395938 0.929557 0.113886 0.395721 -1.395832 -0.788183 0.292485 -1.394744 -0.786625 0.299812 0.000000 0.000000 0.000000 0.381458 -6.154105 -18.082490 1.691155 -9.463026 -60.885064 -0.000003 -6.869976 -0.000012 -0.000001 0.000000 0.000000 1.468618 2.633678 15.583515 -4.937385 10.510653 62.534890 0.000008 14.735968 0.000023 -0.000000 0.000001 -0.000000 -9.390080 4.681839 -4.296216 24.885427 -3.307175 2.225152 -12.086756 -0.400213 3.808369 -0.381370 0.000001 0.000001 0.000000 0.000001 0.000000 -20.703036 -11.728291 -11.634607 63.877377 2.196210 0.765394 -3.755953 -0.772692 7.840621 -11.509971 0.284599 -2.110572 0.000000 -0.000001 -0.000000 
5.395613 95.331779 -73.506027 -3.410843 4.583748 0.384921 7.916188 1.109409 0.609803 0.914797 0.275450 0.374617 0.916237 0.267250 0.372846 -1.357929 -0.845489 0.237164 -1.356855 -0.844834 0.244090 0.000000 0.000000 -0.000000 0.390669 -5.997572 -18.197393 3.664541 -7.363431 -60.816790 -0.000014 -6.037093 0.000014 -0.000001 -0.000000 -0.000001 1.465920 2.646981 15.450636 -5.335376 11.762780 62.829913 0.000026 16.088299 -0.000010 -0.000001 -0.000001 -0.000000 -10.563697 4.475922 -4.641396 25.727040 -2.737161 2.316933 -11.518194 -0.376717 3.750739 -0.611714 0.000001 -0.000001 0.000000 -0.000000 -0.000000 -17.590526 -11.999073 -11.958534 63.835624 3.814159 0.731965 -2.381682 -0.688796 8.126191 -16.015615 0.528947 -2.458487 -0.000000 0.000001 -0.000001 
5.351293 95.088257 -74.943596 -3.646466 4.491663 0.580697 7.716912 1.657382 0.410962 0.908466 0.432892 0.359034 0.910650 0.424108 0.355709 -1.324855 -0.906535 0.182108 -1.323605 -0.906888 0.188665 -0.000000 -0.000000 0.000000 0.400731 -5.840791 -18.289985 5.617234 -5.142066 -60.838735 -0.000006 -5.386934 0.000006 0.000000 -0.000000 0.000001 1.465646 2.629229 15.295713 -5.662634 13.085894 63.056805 0.000016 17.521831 0.000002 -0.000000 0.000002 -0.000001 -11.862071 4.298508 -4.941613 26.748197 -2.272748 2.381975 -11.030230 -0.362476 3.713516 -0.758416 -0.000001 0.000001 0.000000 0.000000 -0.000000 -14.237082 -12.375237 -12.147094 62.920768 5.233824 0.688504 -0.505718 -0.558422 8.472659 -21.256361 0.883869 -2.855498 0.000001 -0.000000 0.000000 
